<?xml version="1.0" encoding="utf-8"?>
<!-- Generator: Adobe Illustrator 24.3.0, SVG Export Plug-In . SVG Version: 6.00 Build 0)  -->
<svg version="1.1" id="Capa_1" xmlns="http://www.w3.org/2000/svg" xmlns:xlink="http://www.w3.org/1999/xlink" x="0px" y="0px"
	 viewBox="0 0 414.66 115.82" style="enable-background:new 0 0 414.66 115.82;" xml:space="preserve">
<style type="text/css">
	.st0{fill:#FFFFFF;}
	.st1{fill:#060B11;}
</style>
<g id="Rectangle_10_copy">
	<path id="Rectangle_10_copy-2" class="st0" d="M0,67.87L0,67.87C95.84,67.87,141.06,0,202.86,0c61.1,0,116.67,67.87,211.79,67.87
		l0,0v47.94H0V67.87z"/>
</g>
<path id="Shape_92" class="st1" d="M216.64,47.75l-11.02,11.02c-1.52,1.52-3.99,1.52-5.51,0c0,0,0,0,0,0l-11.02-11.02
	c-1.51-1.54-1.48-4,0.05-5.51c1.51-1.49,3.94-1.49,5.46,0l8.27,8.27l8.27-8.27c1.54-1.51,4-1.48,5.51,0.06
	c1.48,1.52,1.48,3.94,0,5.46H216.64z"/>
</svg>
